<svg xmlns="http://www.w3.org/2000/svg" viewBox="0 0 100 100" preserveAspectRatio="xMidYMid" width="224" height="224" style="shape-rendering: auto; display: block; background: rgb(255, 255, 255);" xmlns:xlink="http://www.w3.org/1999/xlink"><g><g transform="rotate(0 50 50)">
  <rect fill="#ff7a57" height="6" width="6" ry="3" rx="3" y="18" x="47">
    <animate repeatCount="indefinite" begin="-0.732421875s" dur="0.78125s" keyTimes="0;1" values="1;0" attributeName="opacity"></animate>
  </rect>
</g><g transform="rotate(22.5 50 50)">
  <rect fill="#ff7a57" height="6" width="6" ry="3" rx="3" y="18" x="47">
    <animate repeatCount="indefinite" begin="-0.68359375s" dur="0.78125s" keyTimes="0;1" values="1;0" attributeName="opacity"></animate>
  </rect>
</g><g transform="rotate(45 50 50)">
  <rect fill="#ff7a57" height="6" width="6" ry="3" rx="3" y="18" x="47">
    <animate repeatCount="indefinite" begin="-0.634765625s" dur="0.78125s" keyTimes="0;1" values="1;0" attributeName="opacity"></animate>
  </rect>
</g><g transform="rotate(67.5 50 50)">
  <rect fill="#ff7a57" height="6" width="6" ry="3" rx="3" y="18" x="47">
    <animate repeatCount="indefinite" begin="-0.5859375s" dur="0.78125s" keyTimes="0;1" values="1;0" attributeName="opacity"></animate>
  </rect>
</g><g transform="rotate(90 50 50)">
  <rect fill="#ff7a57" height="6" width="6" ry="3" rx="3" y="18" x="47">
    <animate repeatCount="indefinite" begin="-0.537109375s" dur="0.78125s" keyTimes="0;1" values="1;0" attributeName="opacity"></animate>
  </rect>
</g><g transform="rotate(112.5 50 50)">
  <rect fill="#ff7a57" height="6" width="6" ry="3" rx="3" y="18" x="47">
    <animate repeatCount="indefinite" begin="-0.48828125s" dur="0.78125s" keyTimes="0;1" values="1;0" attributeName="opacity"></animate>
  </rect>
</g><g transform="rotate(135 50 50)">
  <rect fill="#ff7a57" height="6" width="6" ry="3" rx="3" y="18" x="47">
    <animate repeatCount="indefinite" begin="-0.439453125s" dur="0.78125s" keyTimes="0;1" values="1;0" attributeName="opacity"></animate>
  </rect>
</g><g transform="rotate(157.5 50 50)">
  <rect fill="#ff7a57" height="6" width="6" ry="3" rx="3" y="18" x="47">
    <animate repeatCount="indefinite" begin="-0.390625s" dur="0.78125s" keyTimes="0;1" values="1;0" attributeName="opacity"></animate>
  </rect>
</g><g transform="rotate(180 50 50)">
  <rect fill="#ff7a57" height="6" width="6" ry="3" rx="3" y="18" x="47">
    <animate repeatCount="indefinite" begin="-0.341796875s" dur="0.78125s" keyTimes="0;1" values="1;0" attributeName="opacity"></animate>
  </rect>
</g><g transform="rotate(202.5 50 50)">
  <rect fill="#ff7a57" height="6" width="6" ry="3" rx="3" y="18" x="47">
    <animate repeatCount="indefinite" begin="-0.29296875s" dur="0.78125s" keyTimes="0;1" values="1;0" attributeName="opacity"></animate>
  </rect>
</g><g transform="rotate(225 50 50)">
  <rect fill="#ff7a57" height="6" width="6" ry="3" rx="3" y="18" x="47">
    <animate repeatCount="indefinite" begin="-0.244140625s" dur="0.78125s" keyTimes="0;1" values="1;0" attributeName="opacity"></animate>
  </rect>
</g><g transform="rotate(247.5 50 50)">
  <rect fill="#ff7a57" height="6" width="6" ry="3" rx="3" y="18" x="47">
    <animate repeatCount="indefinite" begin="-0.1953125s" dur="0.78125s" keyTimes="0;1" values="1;0" attributeName="opacity"></animate>
  </rect>
</g><g transform="rotate(270 50 50)">
  <rect fill="#ff7a57" height="6" width="6" ry="3" rx="3" y="18" x="47">
    <animate repeatCount="indefinite" begin="-0.146484375s" dur="0.78125s" keyTimes="0;1" values="1;0" attributeName="opacity"></animate>
  </rect>
</g><g transform="rotate(292.5 50 50)">
  <rect fill="#ff7a57" height="6" width="6" ry="3" rx="3" y="18" x="47">
    <animate repeatCount="indefinite" begin="-0.09765625s" dur="0.78125s" keyTimes="0;1" values="1;0" attributeName="opacity"></animate>
  </rect>
</g><g transform="rotate(315 50 50)">
  <rect fill="#ff7a57" height="6" width="6" ry="3" rx="3" y="18" x="47">
    <animate repeatCount="indefinite" begin="-0.048828125s" dur="0.78125s" keyTimes="0;1" values="1;0" attributeName="opacity"></animate>
  </rect>
</g><g transform="rotate(337.5 50 50)">
  <rect fill="#ff7a57" height="6" width="6" ry="3" rx="3" y="18" x="47">
    <animate repeatCount="indefinite" begin="0s" dur="0.78125s" keyTimes="0;1" values="1;0" attributeName="opacity"></animate>
  </rect>
</g><g></g></g><!-- [ldio] generated by https://loading.io --></svg>